{
  "accessors": [
    {
      "name": "Brent.001-Mesh_0_positions",
      "componentType": 5126,
      "count": 592,
      "min": [
        -0.21875,
        0,
        -0.125
      ],
      "max": [
        0.21875,
        1,
        0.125
      ],
      "type": "VEC3",
      "bufferView": 0,
      "byteOffset": 0
    },
    {
      "name": "Brent.001-Mesh_0_normals",
      "componentType": 5126,
      "count": 592,
      "min": [
        -1,
        -1,
        -1
      ],
      "max": [
        1,
        1,
        1
      ],
      "type": "VEC3",
      "bufferView": 1,
      "byteOffset": 0
    },
    {
      "name": "Brent.001-Mesh_0_texcoords",
      "componentType": 5126,
      "count": 592,
      "min": [
        0.03319999948143959,
        0.5
      ],
      "max": [
        0.9667999744415283,
        0.5
      ],
      "type": "VEC2",
      "bufferView": 2,
      "byteOffset": 0
    },
    {
      "name": "Brent.001-Mesh_0_indices",
      "componentType": 5123,
      "count": 1062,
      "min": [
        0
      ],
      "max": [
        591
      ],
      "type": "SCALAR",
      "bufferView": 3,
      "byteOffset": 0
    }
  ],
  "asset": {
    "generator": "obj2gltf",
    "version": "2.0"
  },
  "buffers": [
    {
      "name": "0",
      "byteLength": 21068,
      "uri": "data:application/octet-stream;base64,"
    }
  ],
  "bufferViews": [
    {
      "name": "bufferView_0",
      "buffer": 0,
      "byteLength": 7104,
      "byteOffset": 0,
      "byteStride": 12,
      "target": 34962
    },
    {
      "name": "bufferView_1",
      "buffer": 0,
      "byteLength": 7104,
      "byteOffset": 7104,
      "byteStride": 12,
      "target": 34962
    },
    {
      "name": "bufferView_2",
      "buffer": 0,
      "byteLength": 4736,
      "byteOffset": 14208,
      "byteStride": 8,
      "target": 34962
    },
    {
      "name": "bufferView_3",
      "buffer": 0,
      "byteLength": 2124,
      "byteOffset": 18944,
      "target": 34963
    }
  ],
  "materials": [
    {
      "name": "palette",
      "pbrMetallicRoughness": {
        "baseColorFactor": [
          0.5,
          0.5,
          0.5,
          1
        ],
        "metallicFactor": 0,
        "roughnessFactor": 1
      },
      "emissiveFactor": [
        0,
        0,
        0
      ],
      "alphaMode": "OPAQUE",
      "doubleSided": false
    }
  ],
  "meshes": [
    {
      "name": "Brent.001-Mesh",
      "primitives": [
        {
          "attributes": {
            "POSITION": 0,
            "NORMAL": 1,
            "TEXCOORD_0": 2
          },
          "indices": 3,
          "material": 0,
          "mode": 4
        }
      ]
    }
  ],
  "nodes": [
    {
      "name": "Brent.001",
      "mesh": 0
    }
  ],
  "scene": 0,
  "scenes": [
    {
      "nodes": [
        0
      ]
    }
  ]
}
